PathFileType	4	(X/Y/Z)	c:/Users/goper/Files/vsCode/490R/osim_files/C11/C11_Static01.trc
DataRate	CameraRate	NumFrames	NumMarkers	Units                	OrigDataRate	OrigDataStartFrame	OrigNumFrames
120.00	120.00	4	36	mm	120.0	1	1089
                Frame#	Time	LPSI			LASI			LTH1			LTH2			LTH3			LTH4			LLFE			LMFE			LSH1			LSH2			LSH3			LSH4			LLMA			LMMA			LCAL			LMTP			LTOE			LMTP			RPSI			RASI			RTH1			RTH2			RTH3			RTH4			RLFE			RMFE			RSH1			RSH2			RSH3			RSH4			RLMA			RMMA			RCAL			RMTP			RTOE			RMTP		
		X1	Y1	Z1	X2	Y2	Z2	X3	Y3	Z3	X4	Y4	Z4	X5	Y5	Z5	X6	Y6	Z6	X7	Y7	Z7	X8	Y8	Z8	X9	Y9	Z9	X10	Y10	Z10	X11	Y11	Z11	X12	Y12	Z12	X13	Y13	Z13	X14	Y14	Z14	X15	Y15	Z15	X16	Y16	Z16	X17	Y17	Z17	X18	Y18	Z18	X19	Y19	Z19	X20	Y20	Z20	X21	Y21	Z21	X22	Y22	Z22	X23	Y23	Z23	X24	Y24	Z24	X25	Y25	Z25	X26	Y26	Z26	X27	Y27	Z27	X28	Y28	Z28	X29	Y29	Z29	X30	Y30	Z30	X31	Y31	Z31	X32	Y32	Z32	X33	Y33	Z33	X34	Y34	Z34	X35	Y35	Z35	X36	Y36	Z36

1	0.00000	-374.59637	1019.95551	480.25497	-201.28096	1007.39270	401.95853	-322.33936	644.52106	314.16162	-319.23413	597.04059	311.27695	-261.71271	643.59589	308.91553	-267.58578	597.11670	310.06152	-317.38892	516.60107	305.61237	-296.99063	501.69803	414.49536	-377.19751	414.68088	291.57065	-377.58755	369.95383	287.39325	-316.26828	410.44360	279.97314	-324.85431	366.37552	277.49561	-352.68954	97.10030	311.42563	-314.73764	110.31188	402.71384	-405.05707	59.18145	370.32175	-243.91270	40.22393	268.21429	-165.63124	57.23169	330.00916	-201.80859	45.39208	379.60291	-365.67734	1032.97607	563.90900	-198.63794	1000.71790	633.08148	-301.03793	632.14575	707.37518	-296.58365	588.22070	707.22961	-238.68117	630.44226	698.84583	-244.49040	587.82458	701.41956	-278.46249	520.41779	700.39099	-304.81277	488.47479	591.22748	-347.96533	414.75482	728.80603	-342.96762	368.82910	731.43335	-286.25085	413.05386	723.00482	-290.01520	366.13983	728.42554	-326.75922	98.46461	711.69873	-298.57123	105.38336	617.71802	-387.47415	58.77239	664.40100	-171.42871	48.76591	643.21155	-168.11172	61.56546	692.64417	-209.25903	38.77590	753.85535
2	0.00833	-374.39453	1019.92523	480.19739	-201.08923	1007.39856	401.98444	-322.20123	644.51807	314.19156	-319.09583	597.04840	311.30560	-261.57666	643.56183	308.95309	-267.41971	597.10815	310.07147	-317.27472	516.59503	305.63196	-296.92386	501.63828	414.48975	-377.09375	414.67722	291.59656	-377.54190	369.95486	287.44357	-316.18362	410.42908	280.02682	-324.80621	366.36612	277.52917	-352.70956	97.10700	311.43170	-314.80228	110.29820	402.73239	-405.07449	59.16894	370.33780	-244.03072	40.08703	268.32047	-165.66925	57.24708	330.00946	-201.85368	45.39447	379.60001	-365.68243	1033.02063	563.85291	-198.59473	1000.73187	633.08563	-301.01956	632.12744	707.41150	-296.59955	588.19708	707.24988	-238.64482	630.47687	698.81512	-244.49219	587.82458	701.40723	-278.49091	520.41693	700.37225	-304.72357	488.47519	591.24261	-347.98553	414.75607	728.82275	-343.03415	368.82050	731.44672	-286.27011	413.04910	723.02167	-290.02942	366.14014	728.44006	-326.77542	98.43381	711.70435	-298.55063	105.37284	617.74530	-387.52182	58.79508	664.41345	-171.43976	48.80284	643.21185	-168.13899	61.57059	692.64453	-209.30663	38.77409	753.85437
3	0.01667	-374.17221	1019.88440	480.10309	-200.84850	1007.41443	401.96857	-322.05606	644.52594	314.18588	-318.96884	597.05573	311.29196	-261.44138	643.54303	308.95081	-267.28271	597.10571	310.06161	-317.17371	516.58759	305.63208	-296.79297	501.65115	414.50485	-377.03281	414.70300	291.62802	-377.49887	369.96896	287.46973	-316.11484	410.44296	280.01486	-324.75974	366.36777	277.52216	-352.69965	97.13000	311.43179	-314.82605	110.31731	402.71497	-405.01807	59.11032	370.35712	-244.04115	40.09391	268.29507	-165.66537	57.28450	330.00867	-201.83958	45.45232	379.59048	-365.57678	1033.03552	563.79089	-198.54527	1000.74493	633.08875	-300.98090	632.12897	707.42059	-296.56723	588.21136	707.23840	-238.61674	630.49982	698.74194	-244.45796	587.85901	701.35254	-278.44089	520.44342	700.35339	-304.66412	488.51202	591.21320	-347.96915	414.74405	728.81592	-343.02567	368.83728	731.41699	-286.28247	413.05063	723.01202	-290.00702	366.15805	728.42780	-326.79471	98.45477	711.68646	-298.56235	105.38655	617.73389	-387.55743	58.84348	664.40802	-171.42120	48.84633	643.15717	-168.12932	61.61123	692.62250	-209.29208	38.80574	753.84033
4	0.02500	-373.98474	1019.83325	479.99435	-200.68475	1007.43250	401.95090	-322.27869	644.52148	314.07922	-318.85803	597.05743	311.26157	-261.35446	643.52319	308.94180	-267.18036	597.10645	310.07465	-317.07181	516.57129	305.59717	-296.71118	501.63007	414.50226	-376.98489	414.70935	291.63220	-377.45343	369.96274	287.47977	-315.87805	410.64255	279.97672	-324.75104	366.35849	277.51074	-352.76324	97.11449	311.44449	-314.83362	110.32082	402.69482	-404.92880	58.99317	370.33551	-244.07590	40.08153	268.26712	-165.67776	57.28856	330.00470	-201.81654	45.47644	379.59631	-365.42731	1032.98865	563.67761	-198.48196	1000.73602	633.09283	-300.91827	632.11761	707.43951	-296.52850	588.19409	707.22290	-238.60353	630.49097	698.66449	-244.40874	587.87048	701.28613	-278.37289	520.47095	700.33661	-304.61923	488.50064	591.19281	-347.96573	414.71075	728.80414	-342.98499	368.81808	731.39398	-286.22446	413.07364	722.97247	-289.99435	366.16446	728.42365	-326.78378	98.44658	711.68091	-298.61151	105.39023	617.71991	-387.54718	58.82212	664.40619	-171.44249	48.85917	643.14636	-168.13455	61.62678	692.64838	-209.29253	38.81038	753.84149
